<?xml version="1.0" standalone="no"?>
<!DOCTYPE svg PUBLIC "-//W3C//DTD SVG 20010904//EN"
 "http://www.w3.org/TR/2001/REC-SVG-20010904/DTD/svg10.dtd">
<svg version="1.0" xmlns="http://www.w3.org/2000/svg"
 width="213.000000pt" height="224.000000pt" viewBox="0 0 213.000000 224.000000"
 preserveAspectRatio="xMidYMid meet">

<g transform="translate(0.000000,224.000000) scale(0.100000,-0.100000)"
fill="#000000" stroke="none">
<path d="M865 1996 c-181 -95 -404 -211 -495 -259 l-165 -86 -3 -171 -2 -172
102 55 c57 30 279 145 493 257 215 112 393 206 398 210 4 3 6 81 5 173 l-3
166 -330 -173z"/>
<path d="M1440 1580 c0 -137 3 -250 6 -250 3 0 95 46 204 103 153 78 196 105
187 114 -17 16 -386 283 -392 283 -3 0 -5 -112 -5 -250z"/>
<path d="M693 1462 l-493 -257 0 -167 c0 -93 3 -168 7 -168 5 0 254 129 738
382 72 37 158 83 193 100 l62 33 0 167 c0 93 -3 168 -7 167 -5 0 -230 -116
-500 -257z"/>
<path d="M1425 1214 c-236 -123 -458 -239 -493 -257 l-62 -31 0 -168 c0 -92 2
-168 4 -168 3 0 119 60 258 132 139 73 361 189 493 258 l240 125 3 168 c1 92
-1 167 -5 167 -5 0 -201 -102 -438 -226z"/>
<path d="M1765 947 c-119 -63 -234 -124 -612 -321 l-283 -148 0 -170 0 -170
93 50 c50 27 275 145 500 261 l407 213 0 169 c0 93 -1 169 -2 169 -2 0 -48
-24 -103 -53z"/>
<path d="M417 876 l-198 -103 193 -140 c106 -77 199 -143 206 -147 9 -6 12 46
12 243 0 138 -3 251 -7 251 -5 0 -97 -47 -206 -104z"/>
</g>
</svg>
